<?xml version="1.0" encoding="UTF-8" standalone="no"?>
<!DOCTYPE svg PUBLIC "-//W3C//DTD SVG 1.1//EN" "http://www.w3.org/Graphics/SVG/1.1/DTD/svg11.dtd">
<svg width="100%" height="100%" viewBox="0 0 3178 483" version="1.1" xmlns="http://www.w3.org/2000/svg" xmlns:xlink="http://www.w3.org/1999/xlink" xml:space="preserve" xmlns:serif="http://www.serif.com/" style="fill-rule:evenodd;clip-rule:evenodd;stroke-linejoin:round;stroke-miterlimit:2;">
    <g transform="matrix(10.5437,0,0,10.5437,-5889.91,-9776.23)">
        <g transform="matrix(50,0,0,50,559.253,962.512)">
            <path d="M0.195,-0.285L0.52,-0.105C0.536,-0.096 0.547,-0.088 0.552,-0.081C0.557,-0.074 0.56,-0.065 0.56,-0.054C0.56,-0.04 0.555,-0.028 0.545,-0.017C0.535,-0.007 0.523,-0.002 0.51,-0.002C0.501,-0.002 0.488,-0.007 0.47,-0.017L-0.013,-0.285L0.47,-0.554C0.488,-0.563 0.501,-0.568 0.509,-0.568C0.523,-0.568 0.535,-0.563 0.545,-0.553C0.555,-0.543 0.56,-0.531 0.56,-0.517C0.56,-0.506 0.557,-0.496 0.552,-0.489C0.547,-0.482 0.536,-0.474 0.52,-0.465L0.195,-0.285Z" style="fill-rule:nonzero;"/>
        </g>
        <g transform="matrix(50,0,0,50,589.258,962.512)">
            <path d="M0.197,-0.226L0.197,-0.1L0.233,-0.1C0.257,-0.1 0.274,-0.095 0.284,-0.086C0.295,-0.077 0.3,-0.065 0.3,-0.05C0.3,-0.035 0.295,-0.023 0.284,-0.014C0.274,-0.005 0.257,-0 0.233,-0L0.081,-0C0.057,-0 0.04,-0.005 0.03,-0.014C0.019,-0.023 0.014,-0.035 0.014,-0.05C0.014,-0.065 0.019,-0.077 0.03,-0.086C0.04,-0.095 0.057,-0.1 0.081,-0.1L0.097,-0.1L0.097,-0.492L0.081,-0.492C0.057,-0.492 0.04,-0.496 0.03,-0.506C0.019,-0.515 0.014,-0.527 0.014,-0.542C0.014,-0.557 0.019,-0.569 0.03,-0.578C0.04,-0.588 0.057,-0.592 0.081,-0.592L0.308,-0.592C0.378,-0.592 0.433,-0.574 0.472,-0.539C0.511,-0.504 0.53,-0.462 0.53,-0.412C0.53,-0.38 0.521,-0.352 0.503,-0.326C0.485,-0.301 0.457,-0.278 0.42,-0.258C0.442,-0.24 0.464,-0.216 0.488,-0.187C0.503,-0.168 0.523,-0.139 0.549,-0.1C0.574,-0.1 0.591,-0.097 0.599,-0.092C0.614,-0.082 0.621,-0.068 0.621,-0.05C0.621,-0.035 0.616,-0.023 0.606,-0.014C0.596,-0.005 0.579,-0 0.555,-0L0.498,-0C0.417,-0.125 0.349,-0.201 0.296,-0.226L0.197,-0.226ZM0.197,-0.326L0.275,-0.326C0.304,-0.326 0.33,-0.331 0.353,-0.339C0.383,-0.351 0.404,-0.363 0.414,-0.376C0.425,-0.389 0.43,-0.402 0.43,-0.415C0.43,-0.434 0.42,-0.451 0.4,-0.468C0.38,-0.484 0.35,-0.492 0.312,-0.492L0.197,-0.492L0.197,-0.326Z" style="fill-rule:nonzero;"/>
        </g>
        <g transform="matrix(50,0,0,50,619.262,962.512)">
            <path d="M0.39,-0L0.39,-0.023C0.365,-0.01 0.337,-0 0.307,0.007C0.277,0.013 0.249,0.017 0.225,0.017C0.171,0.017 0.127,0.002 0.094,-0.026C0.06,-0.055 0.043,-0.086 0.043,-0.121C0.043,-0.163 0.065,-0.202 0.108,-0.238C0.15,-0.274 0.21,-0.292 0.285,-0.292C0.315,-0.292 0.35,-0.288 0.39,-0.282L0.39,-0.306C0.39,-0.321 0.384,-0.333 0.371,-0.342C0.358,-0.352 0.333,-0.356 0.297,-0.356C0.268,-0.356 0.229,-0.351 0.182,-0.339C0.165,-0.335 0.151,-0.333 0.141,-0.333C0.128,-0.333 0.116,-0.337 0.107,-0.347C0.098,-0.357 0.093,-0.369 0.093,-0.384C0.093,-0.392 0.095,-0.4 0.098,-0.406C0.101,-0.412 0.106,-0.417 0.112,-0.421C0.118,-0.424 0.13,-0.429 0.148,-0.434C0.173,-0.441 0.198,-0.446 0.224,-0.45C0.25,-0.455 0.273,-0.457 0.294,-0.457C0.356,-0.457 0.404,-0.443 0.439,-0.416C0.473,-0.389 0.49,-0.353 0.49,-0.306L0.49,-0.1L0.507,-0.1C0.531,-0.1 0.549,-0.095 0.559,-0.086C0.569,-0.077 0.574,-0.065 0.574,-0.05C0.574,-0.035 0.569,-0.023 0.559,-0.014C0.549,-0.005 0.531,-0 0.507,-0L0.39,-0ZM0.39,-0.179C0.35,-0.187 0.313,-0.191 0.279,-0.191C0.239,-0.191 0.204,-0.181 0.174,-0.161C0.156,-0.148 0.147,-0.136 0.147,-0.123C0.147,-0.113 0.151,-0.105 0.16,-0.1C0.176,-0.089 0.199,-0.083 0.227,-0.083C0.251,-0.083 0.278,-0.088 0.309,-0.098C0.339,-0.107 0.366,-0.12 0.39,-0.136L0.39,-0.179Z" style="fill-rule:nonzero;"/>
        </g>
        <g transform="matrix(50,0,0,50,649.267,962.512)">
            <path d="M0.41,-0.414L0.41,-0.443L0.527,-0.443C0.551,-0.443 0.569,-0.439 0.579,-0.429C0.589,-0.42 0.594,-0.408 0.594,-0.393C0.594,-0.378 0.589,-0.366 0.579,-0.357C0.569,-0.348 0.551,-0.343 0.527,-0.343L0.51,-0.343L0.51,0.021C0.51,0.056 0.503,0.087 0.488,0.113C0.473,0.139 0.451,0.162 0.42,0.181C0.389,0.2 0.355,0.209 0.316,0.209L0.203,0.209C0.179,0.209 0.162,0.204 0.152,0.195C0.141,0.186 0.136,0.174 0.136,0.159C0.136,0.144 0.141,0.132 0.152,0.123C0.162,0.114 0.179,0.109 0.203,0.109L0.313,0.109C0.344,0.109 0.368,0.101 0.385,0.084C0.402,0.067 0.41,0.046 0.41,0.021L0.41,-0.028C0.388,-0.014 0.365,-0.003 0.343,0.004C0.32,0.012 0.296,0.015 0.272,0.015C0.204,0.015 0.147,-0.008 0.101,-0.053C0.055,-0.098 0.032,-0.154 0.032,-0.221C0.032,-0.288 0.055,-0.344 0.101,-0.39C0.147,-0.435 0.204,-0.458 0.272,-0.458C0.297,-0.458 0.322,-0.454 0.344,-0.447C0.367,-0.44 0.389,-0.429 0.41,-0.414ZM0.41,-0.222C0.41,-0.258 0.396,-0.29 0.369,-0.317C0.342,-0.344 0.309,-0.358 0.271,-0.358C0.233,-0.358 0.2,-0.344 0.173,-0.317C0.146,-0.29 0.132,-0.258 0.132,-0.222C0.132,-0.185 0.146,-0.153 0.173,-0.126C0.2,-0.099 0.233,-0.085 0.271,-0.085C0.309,-0.085 0.342,-0.099 0.369,-0.126C0.396,-0.153 0.41,-0.185 0.41,-0.222Z" style="fill-rule:nonzero;"/>
        </g>
        <g transform="matrix(50,0,0,50,679.272,962.512)">
            <path d="M0.279,-0.443L0.279,-0.381C0.321,-0.411 0.354,-0.431 0.379,-0.441C0.403,-0.451 0.426,-0.457 0.447,-0.457C0.479,-0.457 0.511,-0.444 0.542,-0.42C0.562,-0.404 0.573,-0.388 0.573,-0.371C0.573,-0.356 0.568,-0.344 0.558,-0.334C0.548,-0.324 0.536,-0.319 0.522,-0.319C0.51,-0.319 0.497,-0.326 0.483,-0.338C0.469,-0.35 0.457,-0.356 0.446,-0.356C0.432,-0.356 0.411,-0.348 0.384,-0.33C0.356,-0.313 0.321,-0.286 0.279,-0.251L0.279,-0.1L0.422,-0.1C0.446,-0.1 0.463,-0.095 0.473,-0.086C0.484,-0.077 0.489,-0.065 0.489,-0.05C0.489,-0.035 0.484,-0.023 0.473,-0.014C0.463,-0.005 0.446,-0 0.422,-0L0.12,-0C0.096,-0 0.078,-0.005 0.068,-0.014C0.058,-0.023 0.053,-0.035 0.053,-0.05C0.053,-0.065 0.058,-0.077 0.068,-0.086C0.078,-0.095 0.096,-0.1 0.12,-0.1L0.179,-0.1L0.179,-0.343L0.143,-0.343C0.119,-0.343 0.102,-0.348 0.092,-0.357C0.081,-0.366 0.076,-0.379 0.076,-0.394C0.076,-0.408 0.081,-0.42 0.092,-0.429C0.102,-0.439 0.119,-0.443 0.143,-0.443L0.279,-0.443Z" style="fill-rule:nonzero;"/>
        </g>
        <g transform="matrix(50,0,0,50,709.277,962.512)">
            <path d="M0.56,-0.213C0.56,-0.175 0.549,-0.138 0.528,-0.102C0.507,-0.066 0.475,-0.037 0.433,-0.016C0.391,0.005 0.347,0.016 0.301,0.016C0.255,0.016 0.212,0.006 0.17,-0.015C0.128,-0.036 0.097,-0.065 0.075,-0.101C0.053,-0.137 0.042,-0.175 0.042,-0.214C0.042,-0.254 0.053,-0.294 0.075,-0.332C0.097,-0.371 0.129,-0.401 0.171,-0.423C0.212,-0.445 0.256,-0.457 0.301,-0.457C0.346,-0.457 0.39,-0.445 0.432,-0.423C0.475,-0.4 0.506,-0.37 0.528,-0.331C0.549,-0.293 0.56,-0.254 0.56,-0.213ZM0.46,-0.213C0.46,-0.245 0.448,-0.275 0.425,-0.302C0.394,-0.338 0.352,-0.356 0.301,-0.356C0.256,-0.356 0.218,-0.342 0.188,-0.313C0.157,-0.284 0.142,-0.25 0.142,-0.212C0.142,-0.181 0.157,-0.152 0.188,-0.125C0.219,-0.098 0.256,-0.084 0.301,-0.084C0.346,-0.084 0.383,-0.098 0.414,-0.125C0.445,-0.152 0.46,-0.181 0.46,-0.213Z" style="fill-rule:nonzero;"/>
        </g>
        <g transform="matrix(50,0,0,50,739.282,962.512)">
            <path d="M0.41,-0.414L0.41,-0.443L0.527,-0.443C0.551,-0.443 0.569,-0.439 0.579,-0.429C0.589,-0.42 0.594,-0.408 0.594,-0.393C0.594,-0.378 0.589,-0.366 0.579,-0.357C0.569,-0.348 0.551,-0.343 0.527,-0.343L0.51,-0.343L0.51,0.021C0.51,0.056 0.503,0.087 0.488,0.113C0.473,0.139 0.451,0.162 0.42,0.181C0.389,0.2 0.355,0.209 0.316,0.209L0.203,0.209C0.179,0.209 0.162,0.204 0.152,0.195C0.141,0.186 0.136,0.174 0.136,0.159C0.136,0.144 0.141,0.132 0.152,0.123C0.162,0.114 0.179,0.109 0.203,0.109L0.313,0.109C0.344,0.109 0.368,0.101 0.385,0.084C0.402,0.067 0.41,0.046 0.41,0.021L0.41,-0.028C0.388,-0.014 0.365,-0.003 0.343,0.004C0.32,0.012 0.296,0.015 0.272,0.015C0.204,0.015 0.147,-0.008 0.101,-0.053C0.055,-0.098 0.032,-0.154 0.032,-0.221C0.032,-0.288 0.055,-0.344 0.101,-0.39C0.147,-0.435 0.204,-0.458 0.272,-0.458C0.297,-0.458 0.322,-0.454 0.344,-0.447C0.367,-0.44 0.389,-0.429 0.41,-0.414ZM0.41,-0.222C0.41,-0.258 0.396,-0.29 0.369,-0.317C0.342,-0.344 0.309,-0.358 0.271,-0.358C0.233,-0.358 0.2,-0.344 0.173,-0.317C0.146,-0.29 0.132,-0.258 0.132,-0.222C0.132,-0.185 0.146,-0.153 0.173,-0.126C0.2,-0.099 0.233,-0.085 0.271,-0.085C0.309,-0.085 0.342,-0.099 0.369,-0.126C0.396,-0.153 0.41,-0.185 0.41,-0.222Z" style="fill-rule:nonzero;"/>
        </g>
        <g transform="matrix(50,0,0,50,799.292,962.512)">
            <path d="M0.506,-0.62L0.186,0.071C0.177,0.089 0.17,0.1 0.164,0.105C0.155,0.112 0.145,0.115 0.133,0.115C0.119,0.115 0.107,0.11 0.097,0.101C0.087,0.091 0.083,0.08 0.083,0.067C0.083,0.059 0.086,0.046 0.094,0.029L0.416,-0.662C0.424,-0.679 0.431,-0.691 0.438,-0.696C0.446,-0.703 0.457,-0.706 0.468,-0.706C0.482,-0.706 0.494,-0.701 0.503,-0.692C0.513,-0.682 0.518,-0.671 0.518,-0.659C0.518,-0.65 0.514,-0.637 0.506,-0.62Z" style="fill-rule:nonzero;"/>
        </g>
        <g transform="matrix(50,0,0,50,829.297,962.512)">
            <path d="M0.406,-0.285L0.082,-0.465C0.065,-0.474 0.054,-0.482 0.049,-0.489C0.044,-0.496 0.041,-0.506 0.041,-0.517C0.041,-0.531 0.046,-0.543 0.056,-0.553C0.066,-0.563 0.078,-0.568 0.092,-0.568C0.1,-0.568 0.113,-0.563 0.131,-0.554L0.614,-0.285L0.131,-0.017C0.113,-0.007 0.1,-0.002 0.092,-0.002C0.078,-0.002 0.066,-0.007 0.056,-0.017C0.046,-0.027 0.041,-0.039 0.041,-0.054C0.041,-0.065 0.044,-0.074 0.049,-0.081C0.054,-0.088 0.065,-0.096 0.082,-0.105L0.406,-0.285Z" style="fill-rule:nonzero;"/>
        </g>
    </g>
</svg>
